<svg xmlns="http://www.w3.org/2000/svg" viewBox="0 0 489 489"><defs><style>.cls-1{fill:#ccc;}.cls-2{stroke:#000;stroke-miterlimit:10;}</style></defs><g id="Capa_2" data-name="Capa 2"><g id="Capa_1-2" data-name="Capa 1"><path class="cls-1" d="M244.5,488.5A244,244,0,0,1,72,72,244,244,0,1,1,417,417,242.38,242.38,0,0,1,244.5,488.5Z"/><path class="cls-1" d="M244.5,1a243.56,243.56,0,0,1,94.78,467.86A243.56,243.56,0,0,1,149.72,20.13,242.1,242.1,0,0,1,244.5,1m0-1C109.47,0,0,109.47,0,244.5S109.47,489,244.5,489,489,379.53,489,244.5,379.53,0,244.5,0Z"/><circle cx="244.5" cy="199.5" r="71"/><path d="M244.5,129A70.5,70.5,0,1,1,174,199.5,70.58,70.58,0,0,1,244.5,129m0-1A71.5,71.5,0,1,0,316,199.5,71.5,71.5,0,0,0,244.5,128Z"/><rect x="135.5" y="325.04" width="217.22" height="129.46" rx="15.51"/><path d="M337.21,325.54a15,15,0,0,1,15,15V439a15,15,0,0,1-15,15H151a15,15,0,0,1-15-15V340.55a15,15,0,0,1,15-15h186.2m0-1H151a16,16,0,0,0-16,16V439a16,16,0,0,0,16,16h186.2a16,16,0,0,0,16-16V340.55a16,16,0,0,0-16-16Z"/><path class="cls-2" d="M243.52,286s-106,.47-107,50S240,405.78,240,405.78l110.87-71.46a13.78,13.78,0,0,0,2-9.71C351,312.94,333.32,294,243.52,286Z"/><polygon class="cls-2" points="353 405.78 257.75 401.04 352.63 325.14 353 405.78"/></g></g></svg>